<svg width="567" height="357" viewBox="0 0 567 357" fill="none" xmlns="http://www.w3.org/2000/svg">
<path fill-rule="evenodd" clip-rule="evenodd" d="M283.5 0C440.073 0 567 49.9482 567 111.563V245.438C567 307.052 440.073 357 283.5 357C126.927 357 0 307.052 0 245.438V111.563C0 49.9482 126.927 0 283.5 0Z" fill="url(#paint0_linear_1_57)"/>
<mask id="mask0_1_57" style="mask-type:luminance" maskUnits="userSpaceOnUse" x="0" y="0" width="567" height="357">
<path fill-rule="evenodd" clip-rule="evenodd" d="M283.5 0C440.073 0 567 49.9482 567 111.562V245.438C567 307.052 440.073 357 283.5 357C126.927 357 0 307.052 0 245.438L0 98.5C0 36.8857 126.927 0 283.5 0Z" fill="white"/>
</mask>
<g mask="url(#mask0_1_57)">
<path fill-rule="evenodd" clip-rule="evenodd" d="M284 179C308.853 179 329 158.853 329 134C329 109.147 308.853 89 284 89C259.147 89 239 109.147 239 134C239 158.853 259.147 179 284 179Z" fill="#FEF1AB"/>
<path fill-rule="evenodd" clip-rule="evenodd" d="M-264.604 174.119L-264.6 223.125H-226.819L-226.79 192.087C-241.552 186.888 -254.325 180.833 -264.604 174.119ZM-207.895 197.973L-207.919 223.125H-165.394L-165.37 206.842C-180.525 204.561 -194.788 201.57 -207.895 197.973ZM-146.467 209.264L-146.475 223.125H-103.95L-103.965 211.881C-118.603 211.611 -132.826 210.716 -146.467 209.264ZM-85.0161 211.881L-85.05 223.125H-42.525L-42.5139 209.262C-56.1544 210.715 -70.3778 211.61 -85.0161 211.881ZM-23.6106 206.839L-23.625 223.125H18.9L18.9137 197.967C7.99123 200.966 -3.73363 203.543 -16.1088 205.639L-23.6106 206.839ZM37.8093 192.08L37.8 223.125H75.6L75.6154 174.112C66.6236 179.986 55.7224 185.357 43.2499 190.091L37.8093 192.08ZM491.396 174.119L491.4 223.125H529.2L529.21 192.087C514.448 186.888 501.675 180.833 491.396 174.119ZM548.105 197.973L548.1 223.125H590.625L590.629 206.842C575.475 204.561 561.212 201.57 548.105 197.973ZM609.533 209.264L609.525 223.125H652.05L652.035 211.881C637.397 211.611 623.174 210.716 609.533 209.264ZM670.984 211.881L670.95 223.125H713.475L713.486 209.262C699.846 210.715 685.622 211.61 670.984 211.881ZM732.389 206.839L732.375 223.125H774.9L774.914 197.967C761.807 201.566 747.544 204.557 732.389 206.839ZM793.809 192.08L793.8 223.125H831.6L831.615 174.112C821.339 180.826 808.569 186.881 793.809 192.08ZM113.396 174.119L113.4 223.125H151.2L151.21 192.087C136.448 186.888 123.675 180.833 113.396 174.119ZM170.105 197.973L170.1 223.125H212.625L212.629 206.842C197.475 204.561 183.212 201.57 170.105 197.973ZM231.533 209.264L231.525 223.125H274.05L274.035 211.881C259.397 211.611 245.174 210.716 231.533 209.264ZM292.984 211.881L292.95 223.125H335.475L335.486 209.262C321.846 210.715 307.622 211.61 292.984 211.881ZM354.389 206.839L354.375 223.125H396.9L396.914 197.967C383.807 201.566 369.544 204.557 354.389 206.839ZM415.809 192.08L415.8 223.125H453.6L453.615 174.112C443.339 180.826 430.569 186.881 415.809 192.08ZM81.9 123.958H107.1V133.875L113.4 133.875L113.4 156.556C137.413 184.453 204.498 204.531 283.5 204.531C362.523 204.531 429.623 184.442 453.619 156.534L453.6 133.875L459.9 133.875V123.958H485.1V133.875L491.4 133.875L491.401 156.556C515.413 184.453 582.498 204.531 661.5 204.531C740.523 204.531 807.623 184.442 831.619 156.534L831.6 133.875H869.4V282.625H831.6V238H491.4V282.625H453.6V238H113.4V282.625H75.6V238H-264.6V282.625H-302.4V133.875H-264.6L-264.6 156.556C-240.587 184.453 -173.502 204.531 -94.5 204.531C-15.4768 204.531 51.6229 184.442 75.6187 156.534L75.6 133.875L81.9 133.875V123.958Z" fill="#F96976"/>
<path fill-rule="evenodd" clip-rule="evenodd" d="M18.8999 282.625H170.1V290.062H18.8999V282.625ZM207.9 282.625H359.1V290.062H207.9V282.625ZM548.1 282.625H396.9V290.062H548.1V282.625Z" fill="#47A2C6"/>
<path fill-rule="evenodd" clip-rule="evenodd" d="M217.753 69.417C218.782 69.926 221.375 71.6925 220.201 73.0131C219.418 73.8935 217.284 74.3475 213.798 74.375H-65.5065C-69.8953 74.3162 -72.7986 73.8237 -74.2162 72.8976C-76.3427 71.5085 -75.9416 70.3633 -73.5389 68.5717L-73.3445 68.4375C-69.9915 66.257 -44.6657 53.5034 -6.86389 52.4574C21.1306 51.6827 26.7126 56.3243 29.7236 58.8281C30.8708 59.7821 31.6448 60.4257 33.1431 60.3411C34.2765 60.2771 37.4754 59.5954 42.1308 58.6033C59.7826 54.8415 98.3736 46.6176 124.696 50.686C149.23 54.4781 148.724 61.0247 148.451 64.5519C148.354 65.8069 148.287 66.6797 149.387 66.91C150.939 67.2349 154.257 66.6457 158.815 65.8364C166.573 64.4586 177.925 62.4429 190.276 63.2114C201.658 63.9196 210.817 65.9882 217.753 69.417ZM355.878 161.088C354.789 161.624 351.512 163.345 353.348 164.787C354.571 165.748 357.031 166.183 360.728 166.092H626.408C631.147 166.012 634.242 165.372 635.693 164.173C637.868 162.373 634.021 157.871 626.989 154.409L626.641 154.237C619.462 150.699 604.316 143.235 575.301 141.532C553.5 140.252 533.917 144.868 522.52 147.554C518.5 148.501 515.498 149.209 513.776 149.333C511.764 149.478 507.809 148.949 502.648 148.258C490.872 146.682 472.819 144.265 457.238 147.099C441.601 149.943 435.817 153.894 432.241 156.336C430.692 157.393 429.558 158.168 428.217 158.447C426.575 158.79 423.064 158.169 418.241 157.317C410.032 155.866 398.02 153.743 384.952 154.552C372.908 155.298 363.217 157.477 355.878 161.088Z" fill="white"/>
</g>
<defs>
<linearGradient id="paint0_linear_1_57" x1="0" y1="0" x2="0" y2="357" gradientUnits="userSpaceOnUse">
<stop stop-color="#F5DCD0"/>
<stop offset="1" stop-color="#60CCEC"/>
</linearGradient>
</defs>
</svg>
