<?xml version="1.0" encoding="UTF-8"?> <svg xmlns="http://www.w3.org/2000/svg" width="48" height="47" viewBox="0 0 48 47" fill="none"> <path d="M44.8035 19.7608C49.4594 25.9338 46.621 35.9256 38.4638 42.078C30.3066 48.2305 19.9195 48.2138 15.2636 42.0408C10.6077 35.8678 13.4461 25.876 21.6033 19.7235C29.7605 13.5711 40.1476 13.5878 44.8035 19.7608Z" fill="#E4E1CF"></path> <path d="M11.506 20.4525C13.3351 22.8776 12.6733 26.4611 10.0277 28.4565C7.3821 30.4519 3.75465 30.1035 1.92555 27.6784C0.0964434 25.2533 0.758328 21.6698 3.40391 19.6744C6.04949 17.679 9.67694 18.0274 11.506 20.4525Z" fill="#E4E1CF"></path> <path d="M21.5704 7.22426C23.8984 10.3108 23.6409 14.4305 20.9953 16.4259C18.3497 18.4212 14.3179 17.5367 11.9899 14.4502C9.66197 11.3637 9.91946 7.244 12.565 5.24861C15.2106 3.25322 19.2425 4.13775 21.5704 7.22426Z" fill="#E4E1CF"></path> <path d="M38.258 2.77866C40.0871 5.20377 39.4252 8.7873 36.7796 10.7827C34.1341 12.7781 30.5066 12.4297 28.6775 10.0046C26.8484 7.57947 27.5103 3.99595 30.1559 2.00056C32.8014 0.00517559 36.4289 0.35354 38.258 2.77866Z" fill="#E4E1CF"></path> </svg> 