<?xml version="1.0" encoding="UTF-8"?> <svg xmlns="http://www.w3.org/2000/svg" width="52" height="800" viewBox="0 0 52 800" fill="none"> <path d="M30.3129 29.7042C42.5157 28.5679 51.8415 22.3929 51.8415 14.9457C51.8415 6.6914 40.385 0 26.2526 0C12.1202 0 0.663574 6.6914 0.663574 14.9457C0.663574 23.1365 11.9449 29.7885 25.9275 29.8901C25.7985 29.902 25.6693 29.9144 25.5398 29.9273C11.4419 31.3406 0.332852 39.0401 0.727183 47.1245C1.04058 53.5496 8.52539 58.2842 18.6616 59.2476C8.53006 60.2504 1.04643 65.0847 0.727369 71.626C0.325735 79.8602 11.4288 87.681 25.5268 89.0943C25.6564 89.1073 25.7858 89.1197 25.915 89.1315C25.7902 89.143 25.6651 89.155 25.5398 89.1676C11.4419 90.5809 0.332852 98.2803 0.727183 106.365C1.07585 113.513 10.3011 118.569 22.1786 118.667C9.98244 119.807 0.663574 125.98 0.663574 133.424C0.663574 141.615 11.9449 148.267 25.9276 148.369C25.7985 148.38 25.6693 148.393 25.5398 148.406C11.4419 149.819 0.332852 157.519 0.727183 165.603C1.07585 172.751 10.3011 177.807 22.1786 177.905C9.98244 179.045 0.663574 185.218 0.663574 192.662C0.663574 200.917 12.1202 207.608 26.2526 207.608C40.385 207.608 51.8415 200.917 51.8415 192.662C51.8415 184.475 40.5691 177.825 26.5941 177.718C26.7185 177.707 26.8431 177.695 26.9678 177.682C41.0658 176.269 52.1748 168.569 51.7805 160.485C51.4317 153.334 42.1982 148.276 30.3129 148.183C42.5157 147.046 51.8415 140.871 51.8415 133.424C51.8415 125.237 40.5691 118.587 26.5941 118.48C26.7185 118.468 26.8431 118.456 26.9678 118.444C41.0658 117.031 52.1748 109.331 51.7805 101.247C51.467 94.8205 43.9795 90.0853 33.8403 89.1231C43.975 88.1217 51.4616 83.2867 51.7807 76.744C52.1823 68.5099 41.0792 60.6891 26.9812 59.2758C26.8536 59.263 26.7262 59.2508 26.599 59.2391C26.7218 59.2278 26.8447 59.216 26.9678 59.2037C41.0658 57.7904 52.1748 50.0909 51.7805 42.0065C51.4317 34.855 42.1982 29.7979 30.3129 29.7042Z" fill="#839EFF"></path> <path d="M51.8415 311.141C51.8415 318.588 42.5157 324.763 30.3128 325.9C42.1981 325.993 51.4317 331.05 51.7805 338.202C52.1748 346.286 41.0658 353.986 26.9678 355.399C26.8447 355.411 26.7218 355.423 26.599 355.434C26.7262 355.446 26.8536 355.458 26.9812 355.471C41.0792 356.884 52.1823 364.705 51.7807 372.939C51.4253 380.225 42.1831 385.393 30.2934 385.508C42.5058 386.619 51.8415 392.684 51.8415 400C51.8415 408.087 40.4339 414.646 26.3432 414.674C40.4339 414.702 51.8415 421.383 51.8415 429.619C51.8415 437.812 40.5569 444.464 26.5715 444.564C26.7033 444.576 26.8353 444.589 26.9676 444.602C41.0656 446.015 52.1746 453.715 51.7802 461.799C51.4314 468.95 42.1994 474.007 30.3154 474.101C42.517 475.238 51.8415 481.413 51.8415 488.86C51.8415 496.303 42.5255 502.476 30.332 503.616C42.2081 503.715 51.4319 508.771 51.7805 515.919C52.1748 524.003 41.0658 531.702 26.9678 533.116C26.8365 533.129 26.7054 533.142 26.5745 533.154C40.5585 533.254 51.8415 539.906 51.8415 548.098C51.8415 556.286 40.5674 562.937 26.5909 563.042C26.7163 563.054 26.8418 563.066 26.9676 563.079C41.0656 564.492 52.1746 572.191 51.7802 580.276C51.4314 587.427 42.1994 592.484 30.3155 592.578C42.5171 593.715 51.8415 599.89 51.8415 607.336C51.8415 615.528 40.5568 622.181 26.5712 622.281C26.7031 622.293 26.8352 622.306 26.9676 622.319C41.0656 623.732 52.1746 631.432 51.7802 639.516C51.4314 646.667 42.1994 651.724 30.3155 651.818C42.5171 652.955 51.8415 659.13 51.8415 666.577C51.8415 674.797 40.4789 681.467 26.4265 681.522C40.4789 681.575 51.8415 688.125 51.8415 696.195C51.8415 704.237 40.5609 710.768 26.5788 710.868C26.6526 710.875 26.7266 710.882 26.8006 710.889C26.8607 710.895 26.921 710.901 26.9812 710.907C41.0792 712.32 52.1823 720.141 51.7807 728.375C51.4617 734.915 43.98 739.749 33.8505 740.753C43.9845 741.717 51.4671 746.451 51.7805 752.876C52.1748 760.96 41.0658 768.659 26.9678 770.073C26.8365 770.086 26.7054 770.099 26.5745 770.111C40.5585 770.211 51.8415 776.864 51.8415 785.055C51.8415 793.309 40.385 800.001 26.2526 800.001C12.1202 800.001 0.663574 793.309 0.663574 785.055C0.663574 777.607 9.99224 771.431 22.1978 770.296C10.3111 770.203 1.07604 765.146 0.727183 757.994C0.332852 749.909 11.4419 742.21 25.5398 740.796C25.6615 740.784 25.7829 740.773 25.9042 740.761C25.8461 740.756 25.788 740.751 25.7299 740.745C25.6622 740.739 25.5945 740.732 25.5268 740.725C11.4288 739.312 0.325735 731.491 0.727369 723.257C1.08277 715.971 10.3277 710.802 22.2198 710.688C10.0034 709.579 0.663574 703.513 0.663574 696.195C0.663574 688.125 12.0262 681.575 26.0786 681.522C12.0262 681.467 0.663574 674.797 0.663574 666.577C0.663574 658.386 11.9434 651.735 25.9247 651.632C25.7965 651.62 25.6681 651.608 25.5396 651.595C11.4416 650.182 0.332588 642.482 0.726919 634.398C1.0758 627.245 10.3124 622.188 22.2006 622.096C9.99368 620.961 0.663574 614.785 0.663574 607.336C0.663574 599.146 11.9434 592.494 25.9247 592.392C25.7965 592.38 25.6681 592.368 25.5396 592.355C11.4416 590.942 0.332588 583.242 0.726919 575.158C1.07561 568.009 10.3024 562.953 22.1813 562.856C9.98384 561.717 0.663574 555.543 0.663574 548.098C0.663574 540.65 9.99224 534.474 22.1978 533.339C10.3111 533.246 1.07604 528.189 0.727183 521.037C0.332852 512.952 11.4419 505.253 25.5398 503.839C25.6104 503.832 25.6808 503.826 25.7513 503.819L25.9081 503.804C11.9344 503.696 0.663574 497.047 0.663574 488.86C0.663574 480.669 11.9434 474.018 25.9247 473.915C25.7965 473.904 25.6681 473.891 25.5396 473.878C11.4416 472.465 0.332588 464.766 0.726919 456.681C1.0758 449.528 10.3123 444.471 22.2004 444.379C9.99357 443.244 0.663574 437.068 0.663574 429.619C0.663574 421.383 12.0712 414.702 26.1619 414.674C12.0712 414.646 0.663574 408.087 0.663574 400C0.663574 391.959 11.9414 385.429 25.921 385.327C25.7898 385.315 25.6584 385.303 25.5268 385.29C11.4288 383.876 0.325735 376.056 0.727369 367.821C1.04643 361.28 8.53007 356.446 18.6617 355.443C8.52541 354.479 1.04058 349.745 0.727183 343.32C0.332852 335.235 11.4419 327.536 25.5398 326.123C25.6693 326.11 25.7986 326.097 25.9277 326.085C11.945 325.984 0.663574 319.332 0.663574 311.141C0.663574 303.693 9.99235 297.517 22.198 296.382C10.3112 296.289 1.07604 291.232 0.727183 284.08C0.332852 275.995 11.4419 268.296 25.5398 266.882C25.6615 266.87 25.783 266.859 25.9044 266.847C25.7787 266.836 25.6528 266.824 25.5268 266.811C11.4288 265.398 0.325735 257.577 0.727369 249.343C1.08258 242.06 10.3177 236.894 22.2005 236.774C9.9936 235.661 0.663574 229.597 0.663574 222.283C0.663574 214.179 12.1202 207.609 26.2526 207.609C40.385 207.609 51.8415 214.179 51.8415 222.283C51.8415 230.321 40.5715 236.85 26.5986 236.956C26.7259 236.968 26.8535 236.98 26.9812 236.993C41.0792 238.406 52.1823 246.227 51.7807 254.461C51.4617 261.001 43.98 265.835 33.8504 266.839C43.9845 267.803 51.4671 272.537 51.7805 278.962C52.1748 287.046 41.0658 294.745 26.9678 296.159C26.8364 296.172 26.7052 296.184 26.5742 296.196C40.5584 296.297 51.8415 302.949 51.8415 311.141Z" fill="#839EFF"></path> </svg> 