<?xml version="1.0" encoding="UTF-8"?> <svg xmlns="http://www.w3.org/2000/svg" width="1546" height="71" viewBox="0 0 1546 71" fill="none"> <path fill-rule="evenodd" clip-rule="evenodd" d="M426.071 0.998047L428.319 1.02499L430.565 1.09759L432.808 1.21551L435.047 1.37823L437.28 1.58504L439.505 1.83502L441.721 2.1271L443.928 2.46003L446.124 2.83242L448.308 3.24278L450.479 3.68946L452.637 4.17075L454.781 4.68479L456.91 5.22971L459.024 5.80358L461.122 6.40437L463.205 7.03007L465.271 7.67856L467.322 8.34777L469.356 9.03561L471.374 9.73995L473.375 10.4587L475.36 11.1897L477.328 11.9309L479.28 12.6801L481.216 13.4354L483.135 14.1945L485.038 14.9556L486.925 15.7164L488.796 16.4753L496.095 19.4422L496.138 19.4597L497.876 20.1589L497.936 20.1828L499.642 20.8626L499.717 20.8926L501.391 21.5516L501.483 21.5876L503.123 22.2243L503.232 22.2661L504.84 22.8794L504.964 22.9266L506.61 23.5413L508.301 24.1588L509.977 24.7553L511.635 25.328L513.279 25.8771L514.904 26.4006L516.514 26.8987L518.108 27.3699L519.686 27.8138L521.25 28.2299L522.797 28.6175L524.331 28.9764L525.851 29.3064L527.357 29.6071L528.85 29.8784L530.333 30.1203L531.805 30.3327L533.267 30.5157L534.722 30.6692L536.169 30.7934L537.611 30.8882L539.049 30.9537L540.484 30.9901L541.918 30.9972L543.352 30.9751L544.789 30.9238L546.228 30.8432L547.673 30.7333L549.124 30.5941L550.582 30.4254L552.049 30.2274L553.527 29.9998L555.014 29.7428L556.515 29.4564L558.028 29.1407L559.555 28.7957L561.095 28.4223L562.651 28.0197L564.221 27.5895L565.809 27.1311L567.409 26.6466L569.028 26.1351L570.663 25.5982L572.223 25.0688L572.405 25.0059L573.898 24.4818L574.064 24.4229L575.59 23.8722L575.739 23.8176L577.298 23.2411L577.431 23.1914L579.023 22.5899L579.139 22.5455L580.764 21.9198L580.864 21.8812L582.521 21.2329L582.605 21.1997L584.295 20.5298L584.362 20.5032L586.085 19.8132L586.137 19.7924L587.891 19.0841L591.552 17.5958L591.555 17.5946L593.393 16.846L593.4 16.8432L595.262 16.0862L597.141 15.326L599.037 14.5647L600.948 13.8045L602.876 13.0471L604.82 12.2947L606.78 11.5492L608.757 10.813L610.75 10.0881L612.76 9.37655L614.786 8.68031L616.829 8.00177L618.887 7.34295L620.962 6.70588L623.053 6.09276L625.159 5.5055L627.281 4.94624L629.418 4.41694L631.569 3.9195L633.734 3.45575L635.912 3.02748L638.102 2.63643L640.304 2.2841L642.515 1.97198L644.736 1.70138L646.966 1.47343L649.201 1.28915L651.442 1.14934L653.687 1.05463L655.935 1.00544L658.183 1.002L660.43 1.04432L662.676 1.13221L664.917 1.26527L667.154 1.44291L669.384 1.66434L671.607 1.92861L673.82 2.23457L676.023 2.58093L678.215 2.96628L680.395 3.38903L682.562 3.84754L684.715 4.34001L686.854 4.86466L688.978 5.4196L691.087 6.00272L693.18 6.61212L695.257 7.24573L697.318 7.9014L699.363 8.57716L701.392 9.27076L703.404 9.98011L705.4 10.7032L707.379 11.4379L709.342 12.1821L711.288 12.9335L713.219 13.6904L715.133 14.4504L717.03 15.2116L718.911 15.972L720.768 16.7263L720.776 16.7295L720.784 16.7328L722.626 17.4825L724.45 18.2255L728.052 19.6848L728.1 19.7043L729.827 20.397L729.893 20.4232L731.587 21.096L731.668 21.128L733.331 21.7797L733.428 21.8177L735.057 22.4466L735.172 22.4903L736.769 23.0955L736.899 23.1443L738.463 23.7247L738.61 23.7786L740.141 24.3333L740.304 24.3915L741.802 24.9196L741.982 24.9821L743.545 25.5153L745.182 26.0559L746.804 26.5714L748.407 27.06L749.997 27.5225L751.569 27.9568L753.127 28.3633L754.671 28.7415L756.199 29.0906L757.714 29.4107L759.216 29.7016L760.706 29.963L762.185 30.1951L763.653 30.3975L765.113 30.5706L766.565 30.7143L768.01 30.8285L769.451 30.9135L770.887 30.9692L772.322 30.9957L773.756 30.993L775.191 30.9611L776.628 30.8999L778.069 30.8095L779.516 30.6898L780.969 30.5406L782.43 30.3621L783.9 30.1541L785.381 29.9167L786.874 29.6497L788.377 29.3535L789.896 29.0278L791.426 28.6734L792.972 28.29L794.533 27.8782L796.109 27.4383L797.7 26.9713L799.309 26.4771L800.932 25.9574L802.571 25.4123L804.14 24.8741L804.317 24.8123L805.821 24.2793L805.981 24.2218L807.519 23.6621L807.662 23.6093L809.232 23.0243L809.36 22.9762L810.962 22.3665L811.073 22.324L812.709 21.6908L812.804 21.6537L814.472 20.9981L814.55 20.9673L816.251 20.2904L816.313 20.2656L818.046 19.5693L818.092 19.5508L821.699 18.0879L823.269 17.4486L824.966 16.7012L827.094 15.8375L828.978 15.0768L830.879 14.3156L832.821 13.5461L836.653 12.0592L838.644 11.3071L840.626 10.5743L842.625 9.85353L844.64 9.14679L846.671 8.45614L848.719 7.78381L850.783 7.13184L852.864 6.50239L854.959 5.89752L857.071 5.31923L859.198 4.76956L861.339 4.25045L863.495 3.76385L865.664 3.31155L867.846 2.89528L870.04 2.51673L872.245 2.17742L874.46 1.87875L876.684 1.62199L878.915 1.40824L881.153 1.23845L883.396 1.11334L885.641 1.0335L887.889 0.999273L890.137 1.01082L892.384 1.06809L894.629 1.17082L896.869 1.31855L899.103 1.51063L901.331 1.7462L903.551 2.02425L905.761 2.3436L907.96 2.70288L910.148 3.10063L912.324 3.53529L914.487 4.00514L916.635 4.50838L918.769 5.04314L920.888 5.60749L922.992 6.19943L925.08 6.817L927.152 7.45808L929.208 8.12054L931.248 8.80233L933.271 9.50136L935.278 10.2155L937.268 10.9426L939.242 11.6806L941.199 12.4274L943.141 13.1809L945.065 13.9389L946.974 14.6995L948.866 15.4607L950.742 16.2204L958.066 19.1986L959.853 19.9194L959.907 19.941L961.624 20.6275L961.694 20.6555L963.378 21.3216L963.465 21.3556L965.116 21.9999L965.219 22.0398L966.838 22.6612L966.957 22.7065L968.544 23.3038L968.679 23.3543L970.232 23.9263L970.385 23.9817L971.905 24.5278L972.073 24.5873L973.653 25.1378L975.301 25.695L976.933 26.2275L978.55 26.7345L980.147 27.2142L981.732 27.6678L983.3 28.0932L984.852 28.4902L986.391 28.859L987.915 29.1986L989.426 29.5092L990.923 29.7904L992.41 30.0422L993.885 30.2646L995.351 30.4574L996.807 30.6209L998.257 30.7549L999.701 30.8596L1001.14 30.935L1002.58 30.9811L1004.01 30.998L1005.44 30.9858L1006.88 30.9443L1008.32 30.8735L1009.76 30.7735L1011.21 30.6442L1012.66 30.4855L1014.13 30.2973L1015.6 30.0795L1017.09 29.8325L1018.58 29.5561L1020.09 29.2501L1021.61 28.915L1023.15 28.551L1024.7 28.1582L1026.27 27.7373L1027.85 27.2885L1029.44 26.8122L1031.06 26.3101L1032.69 25.7814L1034.33 25.2283L1035.91 24.6818L1036.08 24.6215L1037.59 24.0795L1037.75 24.0236L1039.3 23.4556L1039.43 23.4041L1041.02 22.811L1041.14 22.7648L1042.75 22.1474L1042.86 22.1065L1044.5 21.4657L1044.59 21.4309L1046.27 20.7678L1046.34 20.739L1048.06 20.0557L1048.11 20.0328L1049.9 19.3141L1051.67 18.5941L1053.51 17.8484L1053.51 17.8451L1057.21 16.3413L1059.08 15.5819L1060.97 14.8207L1062.88 14.0598L1064.8 13.3013L1066.74 12.547L1068.69 11.799L1070.66 11.0595L1072.65 10.3305L1074.66 9.61417L1076.68 8.91259L1078.71 8.22789L1080.77 7.56219L1082.84 6.91757L1084.92 6.29615L1087.02 5.69998L1089.14 5.13105L1091.27 4.59148L1093.42 4.0831L1095.58 3.60779L1097.75 3.16747L1099.94 2.76371L1102.14 2.39817L1104.34 2.07238L1106.56 1.78767L1108.79 1.54525L1111.02 1.34619L1113.26 1.19135L1115.51 1.08142L1117.75 1.01689L1120 0.998049L1122.25 1.02499L1124.49 1.09758L1126.74 1.21551L1128.98 1.37824L1131.21 1.58504L1133.43 1.83502L1135.65 2.1271L1137.86 2.46003L1140.05 2.83243L1142.24 3.24278L1144.41 3.68946L1146.57 4.17074L1148.71 4.68479L1150.84 5.22972L1152.95 5.80354L1155.05 6.40433L1157.13 7.03006L1159.2 7.67862L1161.25 8.34785L1163.29 9.03556L1165.3 9.7399L1167.3 10.4587L1169.29 11.1897L1171.26 11.9309L1173.21 12.6801L1175.15 13.4354L1177.06 14.1945L1178.97 14.9556L1180.85 15.7165L1184.58 17.2289L1184.58 17.2311L1186.42 17.981L1188.23 18.7142L1190.07 19.4597L1191.81 20.1588L1191.87 20.1828L1193.57 20.8626L1193.65 20.8924L1195.32 21.5517L1195.41 21.5876L1197.05 22.2243L1197.16 22.2662L1198.77 22.8794L1198.89 22.9266L1200.47 23.5154L1200.61 23.5676L1202.15 24.131L1202.31 24.1879L1203.82 24.725L1203.99 24.786L1205.47 25.2962L1205.66 25.3609L1207.1 25.8436L1207.31 25.9114L1208.72 26.3661L1208.95 26.4366L1210.32 26.8633L1210.56 26.9355L1211.91 27.334L1212.17 27.4075L1213.62 27.8137L1215.18 28.2296L1216.73 28.6178L1218.26 28.9762L1219.78 29.3065L1221.29 29.6069L1222.78 29.8784L1224.26 30.1203L1225.73 30.3328L1227.2 30.5157L1228.65 30.6692L1230.1 30.7934L1231.54 30.8882L1232.98 30.9537L1234.41 30.9901L1235.85 30.9972L1237.28 30.9751L1238.72 30.9238L1240.16 30.8432L1241.6 30.7333L1243.05 30.5941L1244.51 30.4254L1245.98 30.2273L1247.46 29.9999L1248.94 29.7428L1250.45 29.4562L1251.96 29.1409L1253.49 28.7955L1255.02 28.4223L1256.58 28.0198L1258.02 27.6273L1258.28 27.5533L1259.61 27.1687L1259.86 27.0957L1261.22 26.6828L1261.46 26.6114L1262.85 26.1702L1263.07 26.1011L1264.49 25.632L1264.69 25.5656L1266.15 25.0688L1266.33 25.0059L1267.83 24.4818L1267.99 24.4228L1269.52 23.8722L1269.67 23.8176L1271.23 23.2409L1271.36 23.1914L1272.95 22.59L1273.07 22.5453L1274.69 21.9199L1274.79 21.8813L1276.45 21.2328L1276.53 21.1998L1278.22 20.5298L1278.29 20.5031L1280.01 19.8132L1280.07 19.7924L1285.48 17.5958L1285.48 17.5949L1287.32 16.846L1287.33 16.8432L1287.34 16.8404L1289.19 16.0861L1291.07 15.3259L1291.09 15.3166L1292.97 14.5647L1294.88 13.8045L1296.81 13.0471L1298.75 12.2947L1300.71 11.5492L1302.69 10.8131L1304.68 10.0881L1306.69 9.37648L1308.72 8.68028L1310.76 8.0018L1312.82 7.34295L1314.89 6.70585L1316.98 6.09279L1319.09 5.50552L1321.21 4.94622L1323.35 4.41697L1325.5 3.91951L1327.66 3.45574L1329.84 3.02749L1332.03 2.63643L1334.23 2.28409L1336.45 1.97198L1338.67 1.70138L1340.9 1.47343L1343.13 1.28915L1345.37 1.14934L1347.62 1.05463L1349.86 1.00544L1352.11 1.002L1354.36 1.04432L1356.61 1.13221L1358.85 1.26527L1361.08 1.44291L1363.31 1.66434L1365.54 1.9286L1367.75 2.23458L1369.95 2.58093L1372.14 2.96627L1374.32 3.38903L1376.49 3.84754L1378.64 4.34001L1380.78 4.86466L1382.91 5.41962L1385.02 6.00272L1387.11 6.61207L1389.19 7.24571L1391.25 7.9014L1393.29 8.57719L1395.32 9.27076L1397.33 9.98011L1399.33 10.7032L1401.31 11.4379L1403.27 12.1822L1405.22 12.9336L1407.15 13.6903L1409.06 14.4503L1410.96 15.2116L1412.83 15.9656L1412.84 15.972L1412.86 15.9783L1414.7 16.7262L1414.71 16.7295L1414.71 16.7329L1418.38 18.2254L1418.4 18.2322L1420.22 18.9732L1422.03 19.7044L1423.76 20.3971L1423.82 20.423L1425.52 21.096L1425.6 21.1281L1427.26 21.7797L1427.36 21.8177L1428.99 22.4465L1429.1 22.4903L1430.7 23.0955L1430.83 23.1442L1432.39 23.7248L1432.54 23.7786L1434.07 24.3332L1434.23 24.3915L1435.73 24.9197L1435.91 24.982L1437.38 25.4831L1437.57 25.5488L1439.01 26.0221L1439.22 26.091L1440.62 26.5363L1440.85 26.6074L1442.21 27.0245L1442.46 27.0974L1443.8 27.4862L1444.06 27.5601L1445.5 27.9565L1447.06 28.3636L1448.6 28.7413L1450.13 29.0909L1451.64 29.4106L1453.15 29.7017L1454.64 29.963L1456.11 30.1949L1457.58 30.3975L1459.04 30.5706L1460.49 30.7143L1461.94 30.8285L1463.38 30.9135L1464.82 30.9692L1466.25 30.9957L1467.69 30.993L1469.12 30.9611L1470.56 30.8999L1472 30.8095L1473.44 30.6898L1474.9 30.5407L1476.36 30.3621L1477.83 30.1541L1479.31 29.9167L1480.8 29.6496L1482.31 29.3535L1483.82 29.028L1485.36 28.6733L1486.9 28.29L1488.46 27.8779L1489.91 27.476L1490.17 27.4025L1491.51 27.0085L1491.75 26.9356L1493.13 26.5131L1493.35 26.4428L1494.76 25.9923L1494.97 25.9235L1496.41 25.4451L1496.6 25.3803L1498.07 24.8741L1498.25 24.8122L1499.75 24.2793L1499.91 24.2219L1501.45 23.6621L1501.59 23.6093L1503.16 23.0243L1503.29 22.9762L1504.89 22.3664L1505 22.324L1506.64 21.6909L1506.73 21.6537L1508.4 20.9981L1508.48 20.9673L1510.18 20.2904L1510.24 20.2656L1511.98 19.5692L1512.02 19.5508L1513.79 18.8361L1515.61 18.0936L1517.46 17.3438C1527.69 13.1771 1539.36 18.0922 1543.52 28.3219C1547.69 38.5516 1542.77 50.2221 1532.54 54.3888L1528.83 55.8986L1526.95 56.6585L1525.06 57.4198L1523.15 58.1801L1521.22 58.9376L1519.28 59.6902L1517.32 60.4357L1515.34 61.1721L1513.35 61.8971L1511.34 62.6091L1509.31 63.3055L1507.27 63.9844L1505.21 64.6436L1503.14 65.281L1501.05 65.8947L1498.94 66.4824L1496.82 67.0422L1494.68 67.572L1492.53 68.07L1490.37 68.5344L1488.19 68.9633L1486 69.3551L1483.8 69.7081L1481.59 70.0209L1479.37 70.2923L1477.14 70.521L1474.9 70.706L1472.66 70.8466L1470.42 70.9422L1468.17 70.9922L1465.92 70.9964L1463.67 70.9549L1461.43 70.8678L1459.19 70.7356L1456.95 70.5587L1454.72 70.3381L1452.5 70.0745L1450.28 69.7693L1448.08 69.4236L1445.89 69.039L1443.71 68.6169L1441.54 68.159L1439.39 67.6671L1437.25 67.143L1435.12 66.5886L1433.01 66.006L1430.92 65.397L1428.84 64.7638L1426.78 64.1084L1424.74 63.4331L1422.71 62.7398L1420.69 62.0306L1418.7 61.3077L1416.72 60.5734L1414.76 59.8294L1412.81 59.0779L1410.88 58.3212L1408.96 57.5613L1408.93 57.5482L1407.07 56.8L1405.18 56.0396L1405.17 56.0332L1403.33 55.2854L1403.31 55.2785L1401.47 54.5289L1397.84 53.0507L1396.04 52.3264L1395.99 52.3066L1394.27 51.6133L1394.2 51.5879L1392.51 50.9145L1392.43 50.8822L1390.76 50.2301L1390.67 50.1927L1389.04 49.5631L1388.92 49.5193L1387.33 48.9141L1387.19 48.8651L1385.63 48.2843L1385.48 48.2307L1383.95 47.6756L1383.79 47.6172L1382.29 47.0885L1382.11 47.0265L1380.64 46.5249L1380.45 46.459L1379.02 45.9853L1378.8 45.9166L1377.4 45.4707L1377.17 45.3996L1375.81 44.9821L1375.56 44.9092L1374.22 44.5197L1373.97 44.4461L1372.52 44.0488L1370.96 43.6414L1369.42 43.2632L1367.89 42.9135L1366.38 42.5927L1364.87 42.3013L1363.38 42.0395L1361.9 41.8069L1360.44 41.604L1358.98 41.4302L1357.52 41.2862L1356.08 41.1713L1354.64 41.0858L1353.2 41.0296L1351.77 41.0026L1350.33 41.0048L1348.9 41.0362L1347.46 41.0968L1346.02 41.1867L1344.57 41.306L1343.12 41.4545L1341.66 41.6326L1340.19 41.84L1338.71 42.0768L1337.22 42.3435L1335.71 42.639L1334.2 42.964L1332.66 43.3184L1331.12 43.7011L1329.56 44.1123L1328.11 44.5139L1327.85 44.5875L1326.51 44.9813L1326.27 45.0538L1324.9 45.4756L1324.67 45.5466L1323.26 45.9967L1323.06 46.0648L1321.62 46.5429L1321.42 46.6083L1319.95 47.1137L1319.78 47.1754L1318.27 47.7081L1318.11 47.7656L1316.57 48.3247L1316.43 48.3777L1314.86 48.9625L1314.73 49.0103L1313.13 49.6195L1313.02 49.6625L1311.39 50.2952L1311.29 50.332L1309.62 50.9875L1309.54 51.0186L1307.84 51.6952L1307.78 51.7199L1306 52.4347L1302.41 53.8914L1302.4 53.8969L1300.57 54.6412L1300.57 54.6421L1298.73 55.3916L1298.72 55.3955L1298.71 55.3994L1296.85 56.1538L1294.96 56.9146L1293.06 57.6758L1291.15 58.4353L1289.21 59.1912L1287.26 59.9417L1285.3 60.6845L1283.32 61.4173L1281.32 62.1382L1279.3 62.8451L1277.27 63.5359L1275.22 64.2084L1273.16 64.8605L1271.08 65.4902L1268.98 66.0953L1266.87 66.6739L1264.75 67.2238L1262.61 67.7431L1260.45 68.23L1258.28 68.6827L1256.1 69.0993L1253.91 69.4781L1251.7 69.8178L1249.49 70.1169L1247.26 70.374L1245.03 70.5881L1242.79 70.7583L1240.55 70.8838L1238.3 70.9641L1236.06 70.9987L1233.81 70.9876L1231.56 70.9307L1229.32 70.8284L1227.08 70.681L1224.84 70.4893L1222.61 70.2542L1220.39 69.9765L1218.18 69.6575L1215.98 69.2986L1213.8 68.9011L1211.62 68.4668L1209.46 67.9973L1207.31 67.4943L1205.18 66.9598L1203.06 66.3957L1200.95 65.804L1198.86 65.1867L1196.79 64.5459L1194.74 63.8835L1192.7 63.2019L1190.67 62.503L1188.67 61.789L1186.68 61.0619L1184.7 60.324L1182.74 59.5773L1180.8 58.8239L1178.88 58.066L1176.97 57.3054L1175.08 56.5441L1173.2 55.7844L1171.35 55.0302L1169.5 54.2781L1169.49 54.2759L1165.84 52.7907L1164.09 52.0851L1164.03 52.0635L1162.32 51.3768L1162.25 51.3489L1160.56 50.6826L1160.48 50.6486L1158.82 50.004L1158.72 49.9643L1157.1 49.3427L1156.98 49.2974L1155.4 48.6999L1155.26 48.6494L1153.71 48.0772L1153.56 48.0219L1152.04 47.4757L1151.87 47.416L1150.38 46.8964L1150.19 46.833L1148.74 46.3406L1148.54 46.2739L1147.12 45.8094L1146.9 45.7397L1145.51 45.3035L1145.27 45.2317L1143.92 44.8236L1143.67 44.7503L1142.34 44.3704L1140.64 43.9089L1139.09 43.511L1137.55 43.1422L1136.03 42.8026L1134.51 42.4915L1133.01 42.2099L1131.53 41.9579L1130.05 41.7354L1128.59 41.5421L1127.13 41.3786L1125.68 41.2442L1124.24 41.1393L1122.8 41.0636L1121.36 41.0172L1119.93 41.0001L1118.49 41.0121L1117.06 41.0533L1115.62 41.1238L1114.18 41.2236L1112.73 41.3526L1111.27 41.511L1109.81 41.6991L1108.34 41.9163L1106.85 42.1633L1105.36 42.4394L1103.85 42.7451L1102.33 43.0799L1100.79 43.4438L1099.24 43.8367L1097.68 44.2565L1096.22 44.668L1095.97 44.7414L1094.61 45.1445L1094.38 45.2166L1092.99 45.6479L1092.77 45.718L1091.36 46.1775L1091.15 46.2449L1089.7 46.7322L1089.52 46.7963L1088.03 47.311L1087.86 47.3714L1086.35 47.913L1086.19 47.9691L1084.65 48.5368L1084.51 48.5882L1082.93 49.1813L1082.8 49.2275L1081.19 49.8449L1081.08 49.8857L1079.44 50.5263L1079.35 50.5613L1077.67 51.224L1077.6 51.2528L1075.89 51.936L1075.83 51.959L1074.05 52.6775L1072.25 53.4071L1068.6 54.893L1068.59 54.8963L1066.73 55.6502L1064.88 56.4013L1064.84 56.4176L1062.97 57.1706L1061.07 57.9315L1059.14 58.6899L1057.21 59.4443L1055.25 60.1924L1053.28 60.9321L1051.29 61.6612L1049.29 62.3776L1047.27 63.0793L1045.23 63.7642L1043.18 64.4301L1041.11 65.0749L1039.02 65.6965L1036.92 66.2929L1034.8 66.8621L1032.67 67.402L1030.53 67.9106L1028.37 68.3862L1026.19 68.8269L1024.01 69.231L1021.81 69.5968L1019.6 69.923L1017.38 70.2081L1015.16 70.4509L1012.92 70.6503L1010.68 70.8055L1008.44 70.9159L1006.19 70.9808L1003.94 71.0001L1001.7 70.9735L999.451 70.9013L997.208 70.7838L994.969 70.6215L992.736 70.4151L990.511 70.1655L988.295 69.8737L986.088 69.5412L983.892 69.1691L981.708 68.7591L979.536 68.3127L977.378 67.8318L975.234 67.318L973.105 66.7733L970.991 66.1997L968.893 65.5991L966.81 64.9736L964.743 64.3253L962.693 63.6564L960.658 62.9686L958.64 62.2644L956.639 61.5458L954.654 60.8149L952.686 60.0739L950.733 59.3247L948.797 58.5695L946.878 57.8103L944.975 57.0492L943.088 56.2884L933.917 52.5623L933.874 52.5448L932.135 51.8455L932.076 51.8218L930.37 51.1416L930.294 51.1117L928.621 50.4526L928.529 50.4165L926.888 49.7796L926.78 49.738L925.172 49.1244L925.047 49.0773L923.472 48.4882L923.331 48.4361L921.788 47.8724L921.631 47.8156L920.121 47.2783L919.947 47.2173L918.375 46.6749L916.732 46.1257L915.107 45.6021L913.496 45.1036L911.902 44.6323L910.323 44.188L908.76 43.7718L907.213 43.384L905.679 43.0246L904.159 42.6946L902.653 42.3936L901.159 42.1219L899.676 41.8798L898.204 41.6671L896.741 41.4839L895.287 41.3301L893.84 41.2057L892.398 41.1106L890.96 41.0448L889.525 41.0082L888.091 41.0008L886.657 41.0227L885.22 41.0737L883.781 41.1541L882.336 41.2637L880.885 41.4026L879.427 41.571L877.96 41.7688L876.483 41.9961L874.995 42.2529L873.495 42.539L871.982 42.8545L870.455 43.1992L868.915 43.5725L867.36 43.9744L865.789 44.4047L864.201 44.8628L862.601 45.3471L860.982 45.8584L859.348 46.3951L857.788 46.9241L857.606 46.9871L856.113 47.511L855.947 47.5699L854.421 48.1204L854.272 48.175L852.713 48.7513L852.58 48.801L851.039 49.383L850.872 49.4468L847.49 50.7592L847.357 50.8116L845.717 51.4618L845.649 51.4888L843.927 52.1785L843.876 52.1992L842.121 52.9075L840.549 53.5456L838.872 54.2837L836.773 55.1387L834.904 55.8985L833.026 56.6585L831.13 57.4198L829.219 58.1801L827.292 58.9376L825.348 59.6902L823.388 60.4357L821.411 61.1721L819.419 61.8972L817.409 62.6091L815.383 63.3055L813.341 63.9844L811.283 64.6436L809.208 65.2811L807.117 65.8947L805.011 66.4824L802.89 67.0422L800.753 67.572L798.603 68.07L796.438 68.5344L794.26 68.9633L792.07 69.355L789.869 69.7081L787.657 70.0209L785.436 70.2923L783.207 70.521L780.972 70.706L778.731 70.8466L776.486 70.9422L774.239 70.9922L771.99 70.9964L769.743 70.9549L767.497 70.8678L765.256 70.7356L763.019 70.5587L760.789 70.338L758.566 70.0745L756.353 69.7693L754.149 69.4236L751.957 69.039L749.777 68.6169L747.61 68.159L745.456 67.6671L743.317 67.143L741.193 66.5886L739.084 66.006L736.99 65.397L734.913 64.7639L732.851 64.1084L730.806 63.4331L728.777 62.7398L726.765 62.0306L724.769 61.3078L722.789 60.5733L720.826 59.8294L718.879 59.0779L716.949 58.3213L715.034 57.5612L713.136 56.7999L711.255 56.0396L707.54 54.5289L703.906 53.0508L702.065 52.3066L700.337 51.6133L700.273 51.5878L698.577 50.9144L698.496 50.8822L696.833 50.2303L696.736 50.1926L695.106 49.5631L694.992 49.5195L693.395 48.914L693.265 48.8651L691.701 48.2844L691.554 48.2306L690.022 47.6755L689.859 47.6173L688.36 47.0886L688.181 47.0264L686.617 46.4925L684.98 45.9515L683.359 45.4359L681.753 44.9461L680.165 44.4838L678.592 44.0486L677.034 43.6416L675.491 43.2632L673.961 42.9133L672.446 42.5928L670.944 42.3014L669.453 42.0394L667.975 41.8069L666.506 41.6039L665.046 41.4303L663.594 41.2861L662.149 41.1713L660.708 41.0858L659.271 41.0296L657.837 41.0026L656.403 41.0048L654.968 41.0362L653.531 41.0968L652.09 41.1867L650.643 41.306L649.191 41.4545L647.729 41.6326L646.259 41.84L644.778 42.0769L643.286 42.3434L641.782 42.6392L640.266 42.9639L638.734 43.3183L637.189 43.701L635.628 44.1124L634.053 44.5515L632.461 45.0184L630.853 45.512L629.231 46.0311L627.591 46.576L626.023 47.1137L625.846 47.1754L624.342 47.7081L624.182 47.7656L622.645 48.3248L622.501 48.3777L620.932 48.9624L620.804 49.0104L619.202 49.6196L619.091 49.6624L617.456 50.2952L617.361 50.3321L615.693 50.9875L615.615 51.0186L613.914 51.6951L613.852 51.7199L612.119 52.4159L612.073 52.4346L610.278 53.1607L602.919 56.1538L601.034 56.9146L599.134 57.6757L597.217 58.4353L595.284 59.1913L593.335 59.9417L591.37 60.6844L589.388 61.4173L587.389 62.1382L585.374 62.8451L583.343 63.5359L581.295 64.2084L579.231 64.8605L577.151 65.4902L575.055 66.0953L572.944 66.6739L570.817 67.2238L568.676 67.7431L566.521 68.2301L564.352 68.6827L562.17 69.0993L559.976 69.4781L557.771 69.8178L555.556 70.1169L553.332 70.374L551.101 70.5881L548.863 70.7583L546.621 70.8838L544.375 70.9641L542.127 70.9987L539.879 70.9876L537.632 70.9307L535.387 70.8284L533.147 70.681L530.912 70.4893L528.685 70.2542L526.465 69.9765L524.255 69.6575L522.055 69.2986L519.867 68.9011L517.691 68.4668L515.529 67.9973L513.38 67.4943L511.246 66.9598L509.126 66.3957L507.022 65.804L504.935 65.1867L502.862 64.5459L500.806 63.8835L498.766 63.2018L496.743 62.5029L494.736 61.789L492.746 61.062L490.772 60.324L488.814 59.5774L486.873 58.824L484.948 58.0659L483.039 57.3053L481.147 56.5441L471.908 52.7907L470.159 52.0851L470.105 52.0635L468.388 51.3768L468.318 51.3489L466.633 50.6826L466.547 50.6486L464.895 50.0041L464.792 49.9643L463.173 49.3427L463.054 49.2975L461.4 48.6751L459.702 48.0497L458.022 47.4463L456.357 46.8652L454.709 46.3077L453.077 45.7752L451.462 45.2684L449.862 44.7878L448.279 44.3344L446.71 43.9087L445.157 43.5112L443.619 43.1423L442.095 42.8023L440.584 42.4915L439.086 42.21L437.599 41.9579L436.124 41.7353L434.659 41.5422L433.201 41.3785L431.752 41.2442L430.308 41.1393L428.869 41.0636L427.433 41.0172L425.999 41.0001L424.565 41.0121L423.13 41.0533L421.691 41.1238L420.249 41.2235L418.8 41.3526L417.344 41.5111L415.88 41.699L414.407 41.9164L412.922 42.1632L411.427 42.4395L409.918 42.7452L408.396 43.08L406.861 43.4437L405.31 43.8363L403.745 44.2569L402.163 44.7055L400.567 45.1812L398.954 45.6837L397.326 46.2116L395.68 46.7648L394.018 47.3417L392.341 47.9412L390.646 48.5627L388.996 49.1813L388.874 49.2275L387.261 49.8448L387.155 49.8857L385.509 50.5263L385.42 50.5612L383.741 51.2239L383.668 51.2528L381.957 51.936L381.9 51.9588L380.156 52.6611L380.116 52.6775L374.666 54.893L372.805 55.6502L370.931 56.4094L369.042 57.1706L367.136 57.9315L365.214 58.6901L363.275 59.4444L361.321 60.1924L359.349 60.9321L357.362 61.6612L355.358 62.3776L353.337 63.0793L351.3 63.7642L349.247 64.4301L347.178 65.0749L345.093 65.6965L342.992 66.2929L340.875 66.8621L338.743 67.4019L336.597 67.9106L334.437 68.3862L332.264 68.8269L330.077 69.231L327.88 69.5968L325.671 69.923L323.453 70.2081L321.227 70.4509L318.993 70.6503L316.754 70.8055L314.51 70.9159L312.263 70.9808L310.015 71.0001L307.767 70.9735L305.521 70.9013L303.278 70.7838L301.039 70.6215L298.807 70.4151L296.582 70.1655L294.365 69.8738L292.158 69.5412L289.962 69.1691L287.778 68.7591L285.607 68.3127L283.449 67.8318L281.305 67.318L279.176 66.7733L277.062 66.1997L274.963 65.5991L272.88 64.9737L270.813 64.3254L268.763 63.6563L266.729 62.9686L264.711 62.2644L262.709 61.5458L260.724 60.8149L258.756 60.0738L256.804 59.3247L254.868 58.5695L252.948 57.8103L251.045 57.0493L249.158 56.2884L239.988 52.5623L239.944 52.5448L238.206 51.8454L238.147 51.8217L236.441 51.1417L236.365 51.1117L234.646 50.4348L232.904 49.7588L231.18 49.1011L229.472 48.4625L227.78 47.8443L226.104 47.2482L224.445 46.675L222.803 46.1259L221.177 45.6019L219.567 45.1037L217.972 44.6322L216.394 44.1881L214.831 43.7718L213.283 43.3839L211.749 43.0247L210.23 42.6945L208.723 42.3936L207.229 42.1219L205.747 41.8798L204.275 41.6671L202.812 41.4839L201.358 41.3301L199.91 41.2057L198.468 41.1106L197.03 41.0448L195.595 41.0082L194.161 41.0008L192.727 41.0227L191.291 41.0737L189.851 41.1541L188.407 41.2637L186.956 41.4026L185.497 41.571L184.03 41.7688L182.553 41.9961L181.065 42.2529L179.565 42.539L178.052 42.8545L176.526 43.1991L174.985 43.5726L173.429 43.9746L171.859 44.4048L170.273 44.8625L168.671 45.3472L167.052 45.8584L165.418 46.3949L163.768 46.9561L162.101 47.5408L160.417 48.148L158.717 48.7764L157.001 49.4247L155.268 50.0916L153.561 50.7591L153.477 50.7921L151.787 51.4618L151.72 51.4887L149.998 52.1785L149.946 52.1992L140.821 55.9052L138.942 56.6653L137.047 57.4265L135.136 58.1869L133.208 58.9443L131.264 59.6968L129.304 60.4422L127.327 61.1785L125.334 61.9036L123.324 62.6153L121.298 63.3116L119.256 63.9903L117.198 64.6494L115.123 65.2866L113.032 65.9L110.926 66.4875L108.804 67.047L106.668 67.5766L104.517 68.0743L102.352 68.5384L100.174 68.9669L97.9841 69.3583L95.7826 69.711L93.5708 70.0235L91.3498 70.2945L89.1208 70.5228L86.8851 70.7075L84.6441 70.8477L82.3992 70.9428L80.1519 70.9924L77.9037 70.9963L75.6561 70.9543L73.4108 70.8669L71.169 70.7342L68.9323 70.5569L66.7021 70.3359L64.4796 70.072L62.2662 69.7664L60.063 69.4204L57.8709 69.0354L55.6909 68.613L53.5239 68.1548L51.3706 67.6626L49.2316 67.1382L47.1074 66.5836L44.9985 66.0007L42.9052 65.3915L40.8278 64.7581L38.7665 64.1026L36.7214 63.427L34.6927 62.7336L32.6804 62.0243L30.6845 61.3013L28.705 60.5667L26.742 59.8227L24.7953 59.0712L22.865 58.3145L20.951 57.5545L19.0532 56.7933L17.1717 56.0329L13.4572 54.5222C3.22711 50.3564 -1.68898 38.6863 2.47676 28.4563C6.64251 18.2262 18.3126 13.3101 28.5427 17.4759L32.1922 18.9602L33.993 19.688L35.7774 20.4037L37.5454 21.1057L39.2973 21.7925L41.0328 22.4624L42.7519 23.114L44.4546 23.7459L46.1409 24.3567L47.8106 24.9453L49.464 25.5104L51.1012 26.0512L52.722 26.5667L54.3267 27.0559L55.9155 27.5183L57.4888 27.9531L59.0467 28.3599L60.5899 28.7382L62.1186 29.0877L63.6337 29.408L65.136 29.6991L66.626 29.9608L68.1049 30.1931L69.5736 30.3959L71.0333 30.5692L72.4853 30.7131L73.9307 30.8276L75.3711 30.9129L76.8078 30.9689L78.2424 30.9956L79.6763 30.9931L81.1112 30.9615L82.5485 30.9006L83.9896 30.8104L85.436 30.691L86.8891 30.5421L88.3503 30.3638L89.8206 30.1561L91.3013 29.9189L92.7934 29.6522L94.2976 29.3562L95.8151 29.0309L97.3463 28.6766L98.8919 28.2935L100.452 27.882L102.028 27.4424L103.62 26.9755L105.227 26.4818L106.85 25.9621L108.49 25.4171L110.147 24.8479L111.819 24.2555L113.508 23.6411L115.213 23.0058L116.935 22.3511L118.674 21.6781L120.428 20.9887L122.168 20.2967L122.23 20.2719L123.963 19.5757L124.009 19.5572L133.165 15.8375L135.049 15.0768L136.949 14.3156L138.866 13.5561L140.799 12.8001L142.749 12.0497L144.714 11.3071L146.697 10.5744L148.695 9.85353L150.71 9.14675L152.742 8.45612L154.79 7.78381L156.854 7.13186L158.934 6.50241L161.03 5.89752L163.141 5.31922L165.268 4.76956L167.41 4.25046L169.565 3.76384L171.734 3.31154L173.916 2.89528L176.11 2.51673L178.315 2.17742L180.531 1.87875L182.754 1.62199L184.986 1.40825L187.223 1.23845L189.466 1.11334L191.712 1.0335L193.96 0.999273L196.208 1.01082L198.455 1.06809L200.699 1.17082L202.939 1.31855L205.174 1.51063L207.402 1.7462L209.621 2.02425L211.831 2.34359L214.031 2.70288L216.219 3.10065L218.395 3.5353L220.557 4.00514L222.706 4.50837L224.84 5.04313L226.959 5.6075L229.063 6.19945L231.151 6.81699L233.223 7.45805L235.279 8.12054L237.318 8.80236L239.341 9.50138L241.348 10.2155L243.338 10.9426L245.312 11.6806L247.27 12.4274L249.211 13.1808L251.136 13.9389L253.044 14.6995L254.937 15.4607L264.136 19.1986L265.923 19.9193L265.978 19.941L267.694 20.6275L267.764 20.6555L269.449 21.3216L269.535 21.3556L271.238 22.0197L272.968 22.6836L274.682 23.3288L276.379 23.9537L278.06 24.5573L279.724 25.1381L281.372 25.6952L283.004 26.2276L284.619 26.7342L286.219 27.2145L287.802 27.6676L289.37 28.093L290.923 28.4904L292.461 28.8589L293.985 29.1987L295.496 29.5092L296.994 29.7904L298.48 30.0422L299.956 30.2646L301.421 30.4574L302.878 30.6209L304.328 30.7549L305.771 30.8596L307.21 30.935L308.646 30.9811L310.08 30.998L311.514 30.9858L312.95 30.9443L314.388 30.8735L315.831 30.7735L317.279 30.6442L318.735 30.4854L320.199 30.2973L321.673 30.0796L323.157 29.8325L324.654 29.5559L326.162 29.2501L327.684 28.915L329.22 28.551L330.771 28.1582L332.336 27.7373L333.917 27.2884L335.513 26.8126L337.127 26.3099L338.756 25.7816L340.401 25.2283L342.063 24.6512L343.741 24.0511L345.436 23.4297L347.086 22.811L347.207 22.7648L348.821 22.1473L348.927 22.1065L350.573 21.4656L350.662 21.4308L352.341 20.7679L352.414 20.739L354.126 20.0557L354.182 20.0329L355.926 19.3305L355.967 19.3141L359.584 17.8451L363.279 16.3412L365.152 15.5819L367.042 14.8208L368.948 14.0599L370.87 13.3013L372.809 12.547L374.764 11.799L376.735 11.0595L378.723 10.3305L380.727 9.61419L382.747 8.91259L384.784 8.22786L386.838 7.56219L388.907 6.91757L390.993 6.29613L393.094 5.69998L395.21 5.13109L397.342 4.59148L399.488 4.0831L401.649 3.60782L403.822 3.16745L406.009 2.76369L408.206 2.39817L410.415 2.07238L412.633 1.78767L414.86 1.54526L417.093 1.34619L419.333 1.19135L421.576 1.08142L423.823 1.01689L426.071 0.998047Z" fill="#FF9698"></path> </svg> 